<svg xmlns="http://www.w3.org/2000/svg" viewBox="0 0 117.81 88.52"><g id="Layer_2" data-name="Layer 2"><g id="OBJECTS"><path d="M116.8,41.82,76,1a3.45,3.45,0,0,0-4.88,0L58.9,13.21l-6.5-6.5a11.52,11.52,0,0,0-16.28,0L1,41.82A3.45,3.45,0,0,0,1,46.7L41.82,87.51a3.45,3.45,0,0,0,4.88,0L58.9,75.3l6.51,6.51a11.52,11.52,0,0,0,16.28,0L116.8,46.7A3.45,3.45,0,0,0,116.8,41.82ZM73.55,8.34,106,40.8H86.49L63.79,18.1Zm6.63,35.92L58.9,65.53,37.63,44.26,58.9,23ZM41,11.6a4.61,4.61,0,0,1,6.52,0L54,18.1,31.31,40.8H11.79Zm3.26,68.58L11.79,47.71H31.31L54,70.42Zm32.55-3.26a4.61,4.61,0,0,1-6.52,0l-6.5-6.5,22.7-22.71H106Z"/></g></g></svg>