<svg xmlns="http://www.w3.org/2000/svg" xmlns:xlink="http://www.w3.org/1999/xlink" viewBox="0 0 117.81 88.52"><defs><style>.cls-1{fill:#ede720;}.cls-2{isolation:isolate;}.cls-3,.cls-5{fill:#fff;}.cls-4{mask:url(#mask);}.cls-5{mix-blend-mode:multiply;opacity:0.3;}.cls-6{mask:url(#mask-2);}.cls-7{mask:url(#mask-3);}.cls-8{mask:url(#mask-4);}</style><mask id="mask" x="45.01" y="18.08" width="13.89" height="13.89" maskUnits="userSpaceOnUse"><rect class="cls-1" x="45.59" y="21.56" width="12.73" height="6.92" transform="translate(-2.48 44.07) rotate(-45)"/></mask><mask id="mask-2" x="58.88" y="4.21" width="13.89" height="13.89" maskUnits="userSpaceOnUse"><rect class="cls-1" x="59.46" y="7.7" width="12.73" height="6.92" transform="translate(120.26 -27.5) rotate(135)"/></mask><mask id="mask-3" x="45.02" y="56.55" width="13.89" height="13.89" maskUnits="userSpaceOnUse"><rect class="cls-1" x="45.6" y="60.04" width="12.73" height="6.92" transform="translate(60.12 -18.15) rotate(45)"/></mask><mask id="mask-4" x="58.89" y="70.42" width="13.89" height="13.89" maskUnits="userSpaceOnUse"><rect class="cls-1" x="59.47" y="73.9" width="12.73" height="6.92" transform="translate(57.68 178.62) rotate(-135)"/></mask></defs><g class="cls-2"><g id="Layer_2" data-name="Layer 2"><g id="OBJECTS"><path class="cls-3" d="M116.8,41.82,76,1a3.45,3.45,0,0,0-4.88,0L58.9,13.21l-6.5-6.5a11.52,11.52,0,0,0-16.28,0L1,41.82A3.45,3.45,0,0,0,1,46.7L41.82,87.51a3.45,3.45,0,0,0,4.88,0L58.9,75.3l6.51,6.51a11.52,11.52,0,0,0,16.28,0L116.8,46.7A3.45,3.45,0,0,0,116.8,41.82ZM73.55,8.34,106,40.8H86.49L63.79,18.1Zm6.63,35.92L58.9,65.53,37.63,44.26,58.9,23ZM41,11.6a4.61,4.61,0,0,1,6.52,0L54,18.1,31.31,40.8H11.79Zm3.26,68.58L11.79,47.71H31.31L54,70.42Zm32.55-3.26a4.61,4.61,0,0,1-6.52,0l-6.5-6.5,22.7-22.71H106Z"/><g class="cls-4"><rect class="cls-5" x="45.59" y="21.56" width="12.73" height="6.92" transform="translate(-2.48 44.07) rotate(-45)"/></g><g class="cls-6"><rect class="cls-5" x="59.46" y="7.7" width="12.73" height="6.92" transform="translate(120.26 -27.5) rotate(135)"/></g><g class="cls-7"><rect class="cls-5" x="45.6" y="60.04" width="12.73" height="6.92" transform="translate(60.12 -18.15) rotate(45)"/></g><g class="cls-8"><rect class="cls-5" x="60.05" y="72.5" width="8.77" height="6.92" transform="translate(56.28 175.24) rotate(-135)"/></g></g></g></g></svg>