<svg xmlns="http://www.w3.org/2000/svg" viewBox="0 0 250.62 144.16"><g id="Layer_2" data-name="Layer 2"><g id="OBJECTS"><path d="M9.47,122.42a13.81,13.81,0,0,1-5.44-1,10.3,10.3,0,0,1-4-3l4.21-5a8.74,8.74,0,0,0,2.26,2.13,4.62,4.62,0,0,0,2.46.72c2.28,0,3.43-1.33,3.43-4V100.55H2.92v-6H20v17.23q0,5.34-2.69,8T9.47,122.42Z"/><path d="M34.93,122.22a13.16,13.16,0,0,1-6.16-1.4,10.72,10.72,0,0,1-4.23-3.88A10.48,10.48,0,0,1,23,111.27a10.36,10.36,0,0,1,1.54-5.65,10.55,10.55,0,0,1,4.23-3.84,13.16,13.16,0,0,1,6.16-1.39,13.33,13.33,0,0,1,6.18,1.39,10.27,10.27,0,0,1,5.75,9.49,10.38,10.38,0,0,1-5.75,9.55A13.33,13.33,0,0,1,34.93,122.22Zm0-5.88a4.43,4.43,0,0,0,2.28-.59A4.16,4.16,0,0,0,38.79,114a6,6,0,0,0,.58-2.75,5.74,5.74,0,0,0-.58-2.71,4.2,4.2,0,0,0-1.58-1.7,4.42,4.42,0,0,0-2.28-.58,4.32,4.32,0,0,0-2.24.58,4.24,4.24,0,0,0-1.6,1.7,5.51,5.51,0,0,0-.61,2.71,5.78,5.78,0,0,0,.61,2.75,4.2,4.2,0,0,0,1.6,1.73A4.33,4.33,0,0,0,34.93,116.34Z"/><path d="M49.74,121.87V100.74H56.8v6.16l-1.06-1.75a6.84,6.84,0,0,1,3-3.57,10.3,10.3,0,0,1,5.11-1.19v6.67A8.79,8.79,0,0,0,63,107l-.8,0a5.37,5.37,0,0,0-3.66,1.23,5,5,0,0,0-1.4,4v9.71Z"/><path d="M75.51,120.78a10.73,10.73,0,0,1-5.17-1.27,10.5,10.5,0,0,1-3.78-14.34,9.79,9.79,0,0,1,3.78-3.53,10.94,10.94,0,0,1,5.17-1.25,9.34,9.34,0,0,1,4.6,1.07A6.84,6.84,0,0,1,83,104.8a17.15,17.15,0,0,1,0,11.54,7,7,0,0,1-2.9,3.35A9.13,9.13,0,0,1,75.51,120.78Zm1.28,9a23.31,23.31,0,0,1-5.79-.7A14.08,14.08,0,0,1,66.31,127L69,121.83a9.87,9.87,0,0,0,3.29,1.66,13.11,13.11,0,0,0,3.84.6c2,0,3.45-.43,4.33-1.3a5.12,5.12,0,0,0,1.32-3.8v-2.5l.39-5.92,0-6v-3.86h7.06V118q0,6-3.23,8.89T76.79,129.78Zm.47-14.89a5,5,0,0,0,2.36-.54,4.29,4.29,0,0,0,1.64-1.52,4.23,4.23,0,0,0-1.64-6,5.12,5.12,0,0,0-2.36-.52,5.3,5.3,0,0,0-2.38.52,4.13,4.13,0,0,0-1.65,1.5,4.26,4.26,0,0,0,1.65,6A5.18,5.18,0,0,0,77.26,114.89Z"/><path d="M104.47,122.22a14.18,14.18,0,0,1-6.53-1.42,10.63,10.63,0,0,1-4.32-3.9,10.41,10.41,0,0,1-1.54-5.63,10.69,10.69,0,0,1,1.5-5.64,10.29,10.29,0,0,1,4.15-3.85,13.43,13.43,0,0,1,11.65-.12,9.81,9.81,0,0,1,4.1,3.72,11.17,11.17,0,0,1,1.52,6c0,.26,0,.56,0,.89s0,.65-.08.94H98.16v-3.9h12.78l-2.8,1.09a4.92,4.92,0,0,0-.53-2.49,4.11,4.11,0,0,0-1.56-1.64,4.86,4.86,0,0,0-4.64,0,4,4,0,0,0-1.54,1.66,5.49,5.49,0,0,0-.54,2.51v1.13a5.33,5.33,0,0,0,.64,2.69,4.33,4.33,0,0,0,1.85,1.74,6.45,6.45,0,0,0,2.89.6,7.17,7.17,0,0,0,2.67-.45,8.17,8.17,0,0,0,2.2-1.38l3.9,4.05a9.78,9.78,0,0,1-3.75,2.55A14.17,14.17,0,0,1,104.47,122.22Z"/><path d="M132.38,122.18a18.51,18.51,0,0,1-6-1,12.13,12.13,0,0,1-4.48-2.48l1.44-3a12.49,12.49,0,0,0,4,2.26,14.34,14.34,0,0,0,5,.9,11.2,11.2,0,0,0,3.86-.55,4.55,4.55,0,0,0,2.19-1.5,3.58,3.58,0,0,0,.7-2.16,3,3,0,0,0-.92-2.26,6.93,6.93,0,0,0-2.38-1.39,26.28,26.28,0,0,0-3.21-.91c-1.17-.26-2.35-.57-3.53-.92a16.3,16.3,0,0,1-3.24-1.34,6.56,6.56,0,0,1-2.35-2.21,6.42,6.42,0,0,1-.9-3.56,7.18,7.18,0,0,1,1.11-3.88,7.75,7.75,0,0,1,3.43-2.85,14.23,14.23,0,0,1,5.91-1.07,18,18,0,0,1,4.71.63,13.1,13.1,0,0,1,4.06,1.79l-1.29,3.12a12.5,12.5,0,0,0-3.7-1.7,14.5,14.5,0,0,0-3.78-.52,10.45,10.45,0,0,0-3.79.58,4.66,4.66,0,0,0-2.16,1.56,3.75,3.75,0,0,0-.68,2.18,3,3,0,0,0,.91,2.3,6.77,6.77,0,0,0,2.38,1.37c1,.33,2,.64,3.22.91s2.34.58,3.53.92a15.38,15.38,0,0,1,3.23,1.32,6.71,6.71,0,0,1,2.36,2.19,6.26,6.26,0,0,1,.9,3.51,7.08,7.08,0,0,1-1.13,3.84,7.85,7.85,0,0,1-3.49,2.84A14.33,14.33,0,0,1,132.38,122.18Z"/><path d="M156.32,122.11a10.55,10.55,0,0,1-4.66-1,7,7,0,0,1-3.12-3,10.34,10.34,0,0,1-1.11-5.05V101.21h3.74v11.46a6.36,6.36,0,0,0,1.46,4.56,5.43,5.43,0,0,0,4.12,1.52,6.8,6.8,0,0,0,3.39-.8,5.35,5.35,0,0,0,2.22-2.34,8.12,8.12,0,0,0,.78-3.72V101.21h3.74v20.66h-3.54V116.3l.58,1.48a7.21,7.21,0,0,1-3,3.19A9.13,9.13,0,0,1,156.32,122.11Z"/><path d="M179.59,122.11a9.72,9.72,0,0,1-4-.78,6.11,6.11,0,0,1-2.67-2.17A5.43,5.43,0,0,1,172,116a6,6,0,0,1,.8-3,5.52,5.52,0,0,1,2.61-2.18,12,12,0,0,1,4.89-.82h6.55v2.69h-6.39c-1.87,0-3.13.31-3.78.94a3,3,0,0,0-1,2.26,2.91,2.91,0,0,0,1.21,2.43,5.4,5.4,0,0,0,3.35.92,7.12,7.12,0,0,0,3.69-.93,5.39,5.39,0,0,0,2.28-2.73l.74,2.57a5.81,5.81,0,0,1-2.61,2.9A9.34,9.34,0,0,1,179.59,122.11Zm6.78-.24v-4.36l-.19-.82v-7.45a4.79,4.79,0,0,0-1.39-3.68,5.84,5.84,0,0,0-4.15-1.31,10.73,10.73,0,0,0-3.58.61,9.36,9.36,0,0,0-3,1.61l-1.55-2.8a11.07,11.07,0,0,1,3.84-2,15.79,15.79,0,0,1,4.69-.68c2.83,0,5,.68,6.55,2.06s2.3,3.48,2.3,6.32v12.47Zm-8-23.66,5.3-5.07h4.76l-6.55,5.07Z"/><path d="M196.39,121.87V101.21H200v5.61l-.35-1.4a6.31,6.31,0,0,1,2.88-3.27,10.06,10.06,0,0,1,5-1.13v3.62a3.42,3.42,0,0,0-.45,0h-.41a6.36,6.36,0,0,0-4.75,1.79,7.14,7.14,0,0,0-1.76,5.19v10.29Z"/><path d="M221.11,122.11a12,12,0,0,1-5.83-1.37,9.83,9.83,0,0,1-3.9-3.74,10.7,10.7,0,0,1-1.38-5.46,10.88,10.88,0,0,1,1.34-5.46,9.79,9.79,0,0,1,3.7-3.72,11.29,11.29,0,0,1,10.63,0,9.41,9.41,0,0,1,3.6,3.72,11.55,11.55,0,0,1,1.31,5.6c0,.15,0,.34,0,.54a5.11,5.11,0,0,1-.06.59H212.92V110.1h15.63L227,111a6.91,6.91,0,0,0-.82-3.54,6.23,6.23,0,0,0-2.36-2.44,7.3,7.3,0,0,0-6.95,0,6.07,6.07,0,0,0-2.38,2.46,7.43,7.43,0,0,0-.86,3.6v.63a7.09,7.09,0,0,0,1,3.68,6.41,6.41,0,0,0,2.67,2.51,8.31,8.31,0,0,0,3.93.9,8.79,8.79,0,0,0,3.34-.62,7.42,7.42,0,0,0,2.63-1.87l2.06,2.41a9,9,0,0,1-3.49,2.5A12.15,12.15,0,0,1,221.11,122.11Z"/><path d="M233.31,121.87v-2.42L246.56,103l.74,1.29H233.54v-3.08H250.3v2.46l-13.25,16.41-.86-1.29h14.43v3.08Z"/><path d="M32.94,144.08H32v-9.14h6.27v.84h-5.3Zm-.11-4.71h4.83v.83H32.83Z"/><path d="M39.79,144.08v-9.14h3.42a5,5,0,0,1,2,.37,3,3,0,0,1,1.29,1.07,3.16,3.16,0,0,1,.45,1.7,3.07,3.07,0,0,1-.45,1.66,2.91,2.91,0,0,1-1.29,1.07,4.86,4.86,0,0,1-2,.37H40.33l.43-.44v3.34Zm1-3.26-.43-.46h2.85a3.18,3.18,0,0,0,2.09-.6,2.37,2.37,0,0,0,0-3.38,3.18,3.18,0,0,0-2.09-.6H40.33l.43-.46ZM46,144.08l-2.35-3.31h1l2.36,3.31Z"/><path d="M52.78,144.16a5,5,0,0,1-1.91-.35,4.49,4.49,0,0,1-1.53-1A4.6,4.6,0,0,1,48,139.51a4.61,4.61,0,0,1,.36-1.84,4.45,4.45,0,0,1,1-1.48,4.57,4.57,0,0,1,1.52-1,5.41,5.41,0,0,1,3.83,0,4.54,4.54,0,0,1,1.52,1,4.45,4.45,0,0,1,1,1.48,4.66,4.66,0,0,1,.36,1.85,4.74,4.74,0,0,1-.36,1.86,4.45,4.45,0,0,1-2.52,2.44A5,5,0,0,1,52.78,144.16Zm0-.86A4,4,0,0,0,54.3,143a3.59,3.59,0,0,0,1.22-.8,3.66,3.66,0,0,0,.8-1.2,3.87,3.87,0,0,0-.8-4.22A3.57,3.57,0,0,0,54.3,136a4,4,0,0,0-1.52-.28,4,4,0,0,0-1.53.28,3.57,3.57,0,0,0-1.22.79,4.09,4.09,0,0,0-.81,1.2,4.05,4.05,0,0,0,0,3,3.78,3.78,0,0,0,.81,1.21,3.59,3.59,0,0,0,1.22.8A4,4,0,0,0,52.78,143.3Z"/><path d="M59.3,144.08v-9.14h.79l6.31,7.94H66v-7.94h1v9.14h-.8l-6.29-7.94h.41v7.94Z"/><path d="M71.24,144.08v-8.3H68v-.84h7.39v.84H72.21v8.3Z"/><path d="M77.49,143.25H83v.83H76.52v-9.14h6.27v.84h-5.3ZM77.38,139h4.83v.82H77.38Z"/><path d="M84.81,144.08v-9.14h.8l6.3,7.94H91.5v-7.94h1v9.14h-.8l-6.29-7.94h.42v7.94Z"/><path d="M95,144.08v-9.14H98.7a5.53,5.53,0,0,1,2.57.58,4.24,4.24,0,0,1,1.71,1.62,4.86,4.86,0,0,1,0,4.75,4.22,4.22,0,0,1-1.71,1.61,5.41,5.41,0,0,1-2.57.58Zm1-.83h2.7a4.41,4.41,0,0,0,2.11-.48,3.54,3.54,0,0,0,1.39-1.32,3.76,3.76,0,0,0,.5-1.94,3.71,3.71,0,0,0-.5-1.94,3.44,3.44,0,0,0-1.39-1.31,4.41,4.41,0,0,0-2.11-.48H96Z"/><path d="M110.37,144.08l-3.08-9.14h1l2.88,8.61h-.5l3-8.61h.89l2.94,8.61H117l2.91-8.61h.93l-3.09,9.14h-1l-2.81-8.16h.26l-2.82,8.16Z"/><path d="M123.33,143.25h5.49v.83h-6.46v-9.14h6.27v.84h-5.3Zm-.11-4.22h4.83v.82h-4.83Z"/><path d="M130.65,144.08v-9.14h3.94a4,4,0,0,1,2.37.62,2,2,0,0,1,.85,1.73,2.2,2.2,0,0,1-.35,1.26,2.17,2.17,0,0,1-.94.77,3.28,3.28,0,0,1-1.3.26l.22-.32a3.81,3.81,0,0,1,1.51.27,2.25,2.25,0,0,1,1,.8,2.35,2.35,0,0,1,.35,1.31,2.11,2.11,0,0,1-.86,1.8,4.25,4.25,0,0,1-2.57.64Zm1-.79h3.22a3.34,3.34,0,0,0,1.84-.42,1.65,1.65,0,0,0,0-2.61,3.44,3.44,0,0,0-1.84-.41h-3.33v-.8h3a3,3,0,0,0,1.7-.41,1.58,1.58,0,0,0,0-2.49,3,3,0,0,0-1.7-.41h-2.91Z"/><path d="M143,144.08v-9.14h3.72a5.53,5.53,0,0,1,2.57.58,4.31,4.31,0,0,1,1.71,1.62,4.86,4.86,0,0,1,0,4.75,4.28,4.28,0,0,1-1.71,1.61,5.41,5.41,0,0,1-2.57.58Zm1-.83h2.7a4.41,4.41,0,0,0,2.11-.48,3.54,3.54,0,0,0,1.39-1.32,3.76,3.76,0,0,0,.49-1.94,3.71,3.71,0,0,0-.49-1.94,3.44,3.44,0,0,0-1.39-1.31,4.41,4.41,0,0,0-2.11-.48H144Z"/><path d="M154.34,143.25h5.49v.83h-6.46v-9.14h6.27v.84h-5.3Zm-.11-4.22h4.83v.82h-4.83Z"/><path d="M164.26,144.08l-4-9.14h1l3.78,8.61h-.57l3.81-8.61h1l-4,9.14Z"/><path d="M171.3,143.25h5.49v.83h-6.46v-9.14h6.27v.84h-5.3Zm-.11-4.22H176v.82h-4.83Z"/><path d="M178.62,144.08v-9.14h1v8.31h5.12v.83Z"/><path d="M189.86,144.16a5,5,0,0,1-1.91-.35,4.49,4.49,0,0,1-1.53-1,4.6,4.6,0,0,1-1.36-3.33,4.61,4.61,0,0,1,.36-1.84,4.45,4.45,0,0,1,1-1.48,4.57,4.57,0,0,1,1.52-1,5.24,5.24,0,0,1,1.92-.35,5.15,5.15,0,0,1,1.91.35,4.54,4.54,0,0,1,1.52,1,4.48,4.48,0,0,1,1,1.48,4.66,4.66,0,0,1,.36,1.85,4.74,4.74,0,0,1-.36,1.86,4.5,4.5,0,0,1-2.53,2.44A5,5,0,0,1,189.86,144.16Zm0-.86a4,4,0,0,0,1.52-.28,3.59,3.59,0,0,0,1.22-.8,3.66,3.66,0,0,0,.8-1.2,3.87,3.87,0,0,0-.8-4.22,3.57,3.57,0,0,0-1.22-.79,4,4,0,0,0-1.52-.28,4,4,0,0,0-1.52.28,3.47,3.47,0,0,0-1.22.79,3.88,3.88,0,0,0-.81,4.21,3.66,3.66,0,0,0,2,2A4,4,0,0,0,189.86,143.3Z"/><path d="M196.38,144.08v-9.14h3.42a5.06,5.06,0,0,1,2,.37,2.94,2.94,0,0,1,1.28,1.07,3.08,3.08,0,0,1,.45,1.7,3,3,0,0,1-.45,1.66,2.9,2.9,0,0,1-1.28,1.08,4.89,4.89,0,0,1-2,.38h-2.89l.44-.46v3.34Zm1-3.26-.44-.47h2.86a3.18,3.18,0,0,0,2.09-.6,2.06,2.06,0,0,0,.71-1.67,2.1,2.1,0,0,0-.71-1.7,3.18,3.18,0,0,0-2.09-.6h-2.86l.44-.46Z"/><path d="M206.28,143.25h5.49v.83h-6.46v-9.14h6.27v.84h-5.3Zm-.11-4.22H211v.82h-4.83Z"/><path d="M213.6,144.08v-9.14H217a5,5,0,0,1,2,.37,3,3,0,0,1,1.29,1.07,3.08,3.08,0,0,1,.45,1.7,3,3,0,0,1-.45,1.66,2.91,2.91,0,0,1-1.29,1.07,4.86,4.86,0,0,1-2,.37h-2.88l.43-.44v3.34Zm1-3.26-.43-.46H217a3.16,3.16,0,0,0,2.08-.6,2.37,2.37,0,0,0,0-3.38,3.16,3.16,0,0,0-2.08-.6h-2.86l.43-.46Zm5.27,3.26-2.35-3.31h1l2.36,3.31Z"/><path d="M183.69,41.82,142.88,1A3.45,3.45,0,0,0,138,1l-12.2,12.2-6.51-6.5a11.52,11.52,0,0,0-16.28,0L67.9,41.82a3.45,3.45,0,0,0,0,4.88l40.81,40.81a3.45,3.45,0,0,0,4.88,0L125.8,75.3l6.5,6.51a11.52,11.52,0,0,0,16.28,0L183.69,46.7A3.45,3.45,0,0,0,183.69,41.82ZM140.44,8.34,172.91,40.8H153.38l-22.7-22.7Zm6.63,35.92L125.8,65.53,104.52,44.26,125.8,23ZM107.89,11.6a4.61,4.61,0,0,1,6.52,0l6.5,6.5L98.21,40.8H78.68Zm3.26,68.58L78.68,47.71H98.21l22.7,22.71Zm32.55-3.26a4.61,4.61,0,0,1-6.52,0l-6.5-6.5,22.7-22.71h19.53Z"/></g></g></svg>