<svg xmlns="http://www.w3.org/2000/svg" xmlns:xlink="http://www.w3.org/1999/xlink" viewBox="0 0 268.77 157.07"><defs><style>.cls-1{fill:#ede720;}.cls-2{isolation:isolate;}.cls-3{mask:url(#mask);}.cls-4{mix-blend-mode:multiply;opacity:0.3;}.cls-5{mask:url(#mask-2);}.cls-6{mask:url(#mask-3);}.cls-7{mask:url(#mask-4);}</style><mask id="mask" x="120.01" y="19.39" width="14.9" height="14.9" maskUnits="userSpaceOnUse"><rect class="cls-1" x="120.63" y="23.13" width="13.65" height="7.42" transform="translate(18.36 97.99) rotate(-45)"/></mask><mask id="mask-2" x="134.88" y="4.51" width="14.9" height="14.9" maskUnits="userSpaceOnUse"><rect class="cls-1" x="135.5" y="8.25" width="13.65" height="7.42" transform="translate(251.43 -80.22) rotate(135)"/></mask><mask id="mask-3" x="120.02" y="60.64" width="14.9" height="14.9" maskUnits="userSpaceOnUse"><rect class="cls-1" x="120.64" y="64.38" width="13.65" height="7.42" transform="translate(85.48 -70.19) rotate(45)"/></mask><mask id="mask-4" x="134.89" y="75.52" width="14.9" height="14.9" maskUnits="userSpaceOnUse"><rect class="cls-1" x="135.51" y="79.26" width="13.65" height="7.42" transform="translate(184.32 242.28) rotate(-135)"/></mask></defs><g class="cls-2"><g id="Layer_2" data-name="Layer 2"><g id="OBJECTS"><path d="M10.16,131.28a14.92,14.92,0,0,1-5.83-1.1A11.15,11.15,0,0,1,0,127l4.51-5.35a9.66,9.66,0,0,0,2.43,2.28,5,5,0,0,0,2.63.77c2.46,0,3.68-1.42,3.68-4.27V107.83H3.14v-6.39H21.45v18.47q0,5.73-2.89,8.55T10.16,131.28Z"/><path d="M37.46,131.08a14.15,14.15,0,0,1-6.61-1.51,11.45,11.45,0,0,1-4.53-4.16,11.21,11.21,0,0,1-1.66-6.08,11.07,11.07,0,0,1,1.66-6.06,11.35,11.35,0,0,1,4.53-4.12,14.27,14.27,0,0,1,6.61-1.49,14.31,14.31,0,0,1,6.62,1.49,11,11,0,0,1,6.17,10.18,11.13,11.13,0,0,1-6.17,10.24A14.2,14.2,0,0,1,37.46,131.08Zm0-6.32a4.78,4.78,0,0,0,2.44-.62,4.35,4.35,0,0,0,1.69-1.87,6.38,6.38,0,0,0,.63-2.94,6.19,6.19,0,0,0-.63-2.91,4.45,4.45,0,0,0-1.69-1.82,4.78,4.78,0,0,0-2.44-.62,4.73,4.73,0,0,0-2.41.62,4.63,4.63,0,0,0-1.71,1.82,6.07,6.07,0,0,0-.65,2.91,6.25,6.25,0,0,0,.65,2.94,4.51,4.51,0,0,0,1.71,1.87A4.73,4.73,0,0,0,37.46,124.76Z"/><path d="M53.34,130.7V108h7.57v6.61l-1.13-1.89A7.36,7.36,0,0,1,63,108.94a11,11,0,0,1,5.48-1.28v7.15c-.37,0-.68-.09-.94-.1s-.55,0-.86,0A5.78,5.78,0,0,0,62.79,116a5.45,5.45,0,0,0-1.5,4.29V130.7Z"/><path d="M81,129.53a11.45,11.45,0,0,1-5.54-1.36,10.67,10.67,0,0,1-4.06-3.8,11.81,11.81,0,0,1,0-11.59A10.46,10.46,0,0,1,75.44,109,11.66,11.66,0,0,1,81,107.66a10,10,0,0,1,4.93,1.15A7.36,7.36,0,0,1,89,112.39a18.57,18.57,0,0,1,0,12.37,7.45,7.45,0,0,1-3.12,3.6A9.8,9.8,0,0,1,81,129.53Zm1.38,9.66a24.63,24.63,0,0,1-6.21-.76,15.4,15.4,0,0,1-5-2.21L74,130.66a10.53,10.53,0,0,0,3.53,1.77,13.76,13.76,0,0,0,4.12.65c2.14,0,3.69-.46,4.64-1.4a5.5,5.5,0,0,0,1.42-4.08v-2.67l.42-6.35,0-6.4V108h7.56v18.52q0,6.44-3.47,9.53T82.36,139.19Zm.5-16a5.34,5.34,0,0,0,2.53-.59,4.7,4.7,0,0,0,1.75-6.48,4.32,4.32,0,0,0-1.75-1.61,5.45,5.45,0,0,0-2.53-.56,5.56,5.56,0,0,0-2.55.56,4.33,4.33,0,0,0-1.78,1.61,4.85,4.85,0,0,0,0,4.85,4.45,4.45,0,0,0,1.78,1.63A5.45,5.45,0,0,0,82.86,123.22Z"/><path d="M112,131.08a15.14,15.14,0,0,1-7-1.53,11.42,11.42,0,0,1-4.64-4.18,11.12,11.12,0,0,1-1.66-6,11.44,11.44,0,0,1,1.61-6,11.14,11.14,0,0,1,4.46-4.14,13.56,13.56,0,0,1,6.39-1.49,13.73,13.73,0,0,1,6.11,1.36,10.59,10.59,0,0,1,4.39,4,11.94,11.94,0,0,1,1.63,6.39c0,.28,0,.6,0,1s0,.7-.08,1H105.27V117.2H119l-3,1.17a5.2,5.2,0,0,0-.57-2.68,4.34,4.34,0,0,0-1.67-1.75,5.22,5.22,0,0,0-5,0,4.22,4.22,0,0,0-1.65,1.77,5.9,5.9,0,0,0-.59,2.7v1.21a5.75,5.75,0,0,0,.69,2.89,4.66,4.66,0,0,0,2,1.86,6.84,6.84,0,0,0,3.09.64,7.64,7.64,0,0,0,2.86-.48,8.5,8.5,0,0,0,2.37-1.48l4.18,4.35a10.6,10.6,0,0,1-4,2.73A15.27,15.27,0,0,1,112,131.08Z"/><path d="M142,131a20.09,20.09,0,0,1-6.4-1,13,13,0,0,1-4.8-2.66l1.54-3.26a13.54,13.54,0,0,0,4.27,2.43,15.38,15.38,0,0,0,5.39,1,12,12,0,0,0,4.14-.59,4.78,4.78,0,0,0,2.34-1.61,3.81,3.81,0,0,0,.75-2.32,3.17,3.17,0,0,0-1-2.42,7.15,7.15,0,0,0-2.55-1.48,27.87,27.87,0,0,0-3.45-1c-1.25-.27-2.51-.6-3.78-1a17.28,17.28,0,0,1-3.47-1.44,7.08,7.08,0,0,1-2.53-2.36,7,7,0,0,1-1-3.83,7.65,7.65,0,0,1,1.19-4.16,8.25,8.25,0,0,1,3.68-3,15.08,15.08,0,0,1,6.33-1.15,19.38,19.38,0,0,1,5.06.67,14.42,14.42,0,0,1,4.35,1.92L150.71,107a13.29,13.29,0,0,0-4-1.82,15.46,15.46,0,0,0-4.06-.57,11.11,11.11,0,0,0-4.05.63,5,5,0,0,0-2.32,1.67,4,4,0,0,0-.74,2.34,3.19,3.19,0,0,0,1,2.47,7,7,0,0,0,2.55,1.46,33.53,33.53,0,0,0,3.45,1c1.25.29,2.51.62,3.78,1a15.87,15.87,0,0,1,3.47,1.42,7.29,7.29,0,0,1,2.53,2.34,6.75,6.75,0,0,1,1,3.76,7.59,7.59,0,0,1-1.21,4.12,8.37,8.37,0,0,1-3.74,3A15.43,15.43,0,0,1,142,131Z"/><path d="M167.64,131a11.28,11.28,0,0,1-5-1,7.46,7.46,0,0,1-3.34-3.19,11,11,0,0,1-1.19-5.42V108.54h4v12.29a6.76,6.76,0,0,0,1.57,4.89,5.8,5.8,0,0,0,4.41,1.63,7.44,7.44,0,0,0,3.64-.85,5.78,5.78,0,0,0,2.38-2.51,8.71,8.71,0,0,0,.83-4V108.54h4V130.7h-3.81v-6l.63,1.59a7.72,7.72,0,0,1-3.26,3.43A9.85,9.85,0,0,1,167.64,131Z"/><path d="M192.6,131a10.42,10.42,0,0,1-4.33-.84,6.58,6.58,0,0,1-2.86-2.32,5.86,5.86,0,0,1-1-3.36,6.33,6.33,0,0,1,.86-3.26,5.85,5.85,0,0,1,2.8-2.34,12.91,12.91,0,0,1,5.25-.88h7v2.88h-6.86c-2,0-3.35.34-4.05,1a3.22,3.22,0,0,0-1,2.42,3.11,3.11,0,0,0,1.3,2.61,5.79,5.79,0,0,0,3.6,1,7.61,7.61,0,0,0,3.95-1,5.68,5.68,0,0,0,2.44-2.92l.8,2.76a6.28,6.28,0,0,1-2.8,3.11A10,10,0,0,1,192.6,131Zm7.27-.25V126l-.21-.88v-8a5.17,5.17,0,0,0-1.48-4,6.28,6.28,0,0,0-4.45-1.4,11.79,11.79,0,0,0-3.85.65,9.9,9.9,0,0,0-3.18,1.74l-1.67-3a12.17,12.17,0,0,1,4.12-2.12,17.45,17.45,0,0,1,5-.73q4.55,0,7,2.22c1.64,1.48,2.47,3.73,2.47,6.77V130.7Zm-8.53-25.38L197,99.89h5.1l-7,5.43Z"/><path d="M210.61,130.7V108.54h3.85v6l-.38-1.5a6.78,6.78,0,0,1,3.1-3.51,10.83,10.83,0,0,1,5.35-1.22v3.89a2.74,2.74,0,0,0-.48,0h-.44a6.82,6.82,0,0,0-5.1,1.92,7.65,7.65,0,0,0-1.88,5.56v11Z"/><path d="M237.12,131a12.94,12.94,0,0,1-6.25-1.46,10.51,10.51,0,0,1-4.18-4,11.41,11.41,0,0,1-1.49-5.85,11.69,11.69,0,0,1,1.44-5.85,10.45,10.45,0,0,1,4-4,12,12,0,0,1,11.39,0,10.14,10.14,0,0,1,3.87,4,12.37,12.37,0,0,1,1.4,6c0,.16,0,.36,0,.58s0,.43-.07.63H228.34v-2.89H245.1l-1.63,1a7.4,7.4,0,0,0-.88-3.81,6.68,6.68,0,0,0-2.53-2.61,7.87,7.87,0,0,0-7.46,0,6.72,6.72,0,0,0-2.55,2.63,8,8,0,0,0-.92,3.87v.67a7.56,7.56,0,0,0,1,4,7,7,0,0,0,2.86,2.7,9,9,0,0,0,4.22,1,9.21,9.21,0,0,0,3.58-.67,8,8,0,0,0,2.82-2l2.21,2.59a9.67,9.67,0,0,1-3.74,2.68A13,13,0,0,1,237.12,131Z"/><path d="M250.2,130.7v-2.59l14.22-17.65.79,1.38H250.45v-3.3h18v2.64l-14.21,17.6-.92-1.38h15.47v3.3Z"/><path d="M35.32,157h-1v-9.8H41v.89H35.32Zm-.11-5.06h5.18v.9H35.21Z"/><path d="M42.68,157v-9.8h3.66a5.11,5.11,0,0,1,2.14.4,3,3,0,0,1,1.38,1.14,3.24,3.24,0,0,1,.49,1.82,3.15,3.15,0,0,1-.49,1.78,3.09,3.09,0,0,1-1.38,1.15,5.11,5.11,0,0,1-2.14.4H43.25l.46-.48V157Zm1-3.5-.46-.49h3.06a3.38,3.38,0,0,0,2.24-.65,2.54,2.54,0,0,0,0-3.62,3.38,3.38,0,0,0-2.24-.65H43.25l.46-.49Zm5.66,3.5-2.52-3.56H48L50.5,157Z"/><path d="M56.61,157.07a5.46,5.46,0,0,1-2-.37,4.91,4.91,0,0,1-1.64-1,4.78,4.78,0,0,1-1.08-1.58,5.22,5.22,0,0,1,0-4,4.84,4.84,0,0,1,2.71-2.64,5.86,5.86,0,0,1,4.1,0,5,5,0,0,1,1.63,1.05,4.73,4.73,0,0,1,1.08,1.58,5.4,5.4,0,0,1,0,4,4.8,4.8,0,0,1-2.71,2.62A5.44,5.44,0,0,1,56.61,157.07Zm0-.92a4.37,4.37,0,0,0,1.63-.3,3.83,3.83,0,0,0,1.3-.86,3.89,3.89,0,0,0,.86-1.29,4.36,4.36,0,0,0,0-3.23,3.89,3.89,0,0,0-.86-1.29,3.81,3.81,0,0,0-1.3-.85,4.61,4.61,0,0,0-3.27,0,3.76,3.76,0,0,0-1.31.85,4.12,4.12,0,0,0,0,5.81,3.78,3.78,0,0,0,1.31.86A4.39,4.39,0,0,0,56.61,156.15Z"/><path d="M63.59,157v-9.8h.86l6.76,8.51h-.45v-8.51h1V157h-.85l-6.75-8.52h.45V157Z"/><path d="M76.41,157v-8.91H73v-.89h7.93v.89H77.44V157Z"/><path d="M83.1,156.09H89v.9H82.06v-9.8h6.72v.89H83.1ZM83,151.57h5.18v.88H83Z"/><path d="M91,157v-9.8h.85l6.76,8.51h-.44v-8.51h1V157h-.86l-6.75-8.52H92V157Z"/><path d="M101.86,157v-9.8h4a5.75,5.75,0,0,1,2.75.62,4.46,4.46,0,0,1,1.84,1.73,5.26,5.26,0,0,1,0,5.1,4.5,4.5,0,0,1-1.84,1.72,5.75,5.75,0,0,1-2.75.63Zm1-.9h2.89a4.78,4.78,0,0,0,2.27-.51,3.75,3.75,0,0,0,1.49-1.41,4.1,4.1,0,0,0,.53-2.08,4.06,4.06,0,0,0-.53-2.09,3.75,3.75,0,0,0-1.49-1.41,4.78,4.78,0,0,0-2.27-.51H102.9Z"/><path d="M118.37,157l-3.3-9.8h1.06l3.1,9.22h-.54l3.2-9.22h1l3.15,9.22h-.5l3.12-9.22h1l-3.3,9.8h-1.1l-3-8.75h.28l-3,8.75Z"/><path d="M132.26,156.09h5.9v.9h-6.93v-9.8H138v.89h-5.69Zm-.11-4.52h5.18v.88h-5.18Z"/><path d="M140.12,157v-9.8h4.22a4.29,4.29,0,0,1,2.54.65,2.16,2.16,0,0,1,.91,1.87,2.37,2.37,0,0,1-.37,1.34,2.43,2.43,0,0,1-1,.83,3.52,3.52,0,0,1-1.39.28l.23-.34a4.15,4.15,0,0,1,1.62.29,2.3,2.3,0,0,1,1.06.85,2.51,2.51,0,0,1,.38,1.41,2.28,2.28,0,0,1-.92,1.93,4.58,4.58,0,0,1-2.77.69Zm1-.86h3.46a3.57,3.57,0,0,0,2-.44,1.77,1.77,0,0,0,0-2.8,3.66,3.66,0,0,0-2-.44H141v-.85h3.23a3.17,3.17,0,0,0,1.83-.45,1.7,1.7,0,0,0,0-2.67,3.25,3.25,0,0,0-1.83-.44h-3.12Z"/><path d="M153.39,157v-9.8h4a5.78,5.78,0,0,1,2.75.62,4.52,4.52,0,0,1,1.84,1.73,5.26,5.26,0,0,1,0,5.1,4.56,4.56,0,0,1-1.84,1.72,5.78,5.78,0,0,1-2.75.63Zm1-.9h2.89a4.78,4.78,0,0,0,2.27-.51,3.82,3.82,0,0,0,1.49-1.41,4.1,4.1,0,0,0,.53-2.08,4.06,4.06,0,0,0-.53-2.09,3.82,3.82,0,0,0-1.49-1.41,4.78,4.78,0,0,0-2.27-.51h-2.89Z"/><path d="M165.52,156.09h5.89v.9h-6.93v-9.8h6.72v.89h-5.68Zm-.12-4.52h5.18v.88H165.4Z"/><path d="M176.16,157l-4.35-9.8h1.13l4.06,9.22h-.62l4.09-9.22h1.05l-4.34,9.8Z"/><path d="M183.71,156.09h5.89v.9h-6.93v-9.8h6.72v.89h-5.68Zm-.12-4.52h5.18v.88h-5.18Z"/><path d="M191.56,157v-9.8h1v8.9h5.48v.9Z"/><path d="M203.62,157.07a5.49,5.49,0,0,1-2.05-.37,5,5,0,0,1-2.72-6.59,5,5,0,0,1,1.08-1.59,4.86,4.86,0,0,1,1.63-1.05,5.86,5.86,0,0,1,4.1,0,4.86,4.86,0,0,1,1.63,1.05,4.73,4.73,0,0,1,1.08,1.58,5.4,5.4,0,0,1,0,4,4.94,4.94,0,0,1-1.08,1.58,4.84,4.84,0,0,1-1.63,1A5.44,5.44,0,0,1,203.62,157.07Zm0-.92a4.37,4.37,0,0,0,1.63-.3,3.83,3.83,0,0,0,1.3-.86,3.89,3.89,0,0,0,.86-1.29,4.36,4.36,0,0,0,0-3.23,3.89,3.89,0,0,0-.86-1.29,3.81,3.81,0,0,0-1.3-.85,4.61,4.61,0,0,0-3.27,0,3.76,3.76,0,0,0-1.31.85,4.12,4.12,0,0,0,0,5.81,3.78,3.78,0,0,0,1.31.86A4.39,4.39,0,0,0,203.62,156.15Z"/><path d="M210.6,157v-9.8h3.67a5.14,5.14,0,0,1,2.14.4,3,3,0,0,1,1.38,1.14,3.32,3.32,0,0,1,.49,1.82,3.23,3.23,0,0,1-.49,1.78,3.11,3.11,0,0,1-1.38,1.16,5.14,5.14,0,0,1-2.14.4h-3.09l.46-.49V157Zm1-3.5-.46-.51h3.06a3.46,3.46,0,0,0,2.24-.63,2.54,2.54,0,0,0,0-3.62,3.4,3.4,0,0,0-2.24-.65h-3.06l.46-.49Z"/><path d="M221.22,156.09h5.89v.9h-6.93v-9.8h6.72v.89h-5.68Zm-.11-4.52h5.18v.88h-5.18Z"/><path d="M229.07,157v-9.8h3.67a5.14,5.14,0,0,1,2.14.4,3,3,0,0,1,1.38,1.14,3.32,3.32,0,0,1,.49,1.82,3.23,3.23,0,0,1-.49,1.78,3.09,3.09,0,0,1-1.38,1.15,5.14,5.14,0,0,1-2.14.4h-3.09l.46-.48V157Zm1-3.5-.46-.49h3.06a3.4,3.4,0,0,0,2.24-.65,2.54,2.54,0,0,0,0-3.62,3.4,3.4,0,0,0-2.24-.65h-3.06l.46-.49Zm5.65,3.5-2.52-3.56h1.12L236.9,157Z"/><path d="M197,44.84,153.23,1.08a3.72,3.72,0,0,0-5.24,0L134.91,14.17l-7-7a12.34,12.34,0,0,0-17.46,0L72.82,44.84a3.7,3.7,0,0,0,0,5.24l43.76,43.76a3.69,3.69,0,0,0,5.24,0l13.09-13.08,7,7a12.34,12.34,0,0,0,17.46,0L197,50.08A3.7,3.7,0,0,0,197,44.84ZM150.61,8.94l34.82,34.82H164.49L140.14,19.41Zm7.11,38.52L134.91,70.28,112.09,47.46l22.82-22.81Zm-42-35a4.93,4.93,0,0,1,7,0l7,7L105.32,43.76H84.38ZM119.2,86,84.38,51.17h20.94l24.35,24.35Zm34.9-3.49a4.93,4.93,0,0,1-7,0l-7-7,24.35-24.35h20.94Z"/><g class="cls-3"><rect class="cls-4" x="120.63" y="23.13" width="13.65" height="7.42" transform="translate(18.36 97.99) rotate(-45)"/></g><g class="cls-5"><rect class="cls-4" x="135.5" y="8.25" width="13.65" height="7.42" transform="translate(251.43 -80.22) rotate(135)"/></g><g class="cls-6"><rect class="cls-4" x="120.64" y="64.38" width="13.65" height="7.42" transform="translate(85.48 -70.19) rotate(45)"/></g><g class="cls-7"><rect class="cls-4" x="135.51" y="79.26" width="13.65" height="7.42" transform="translate(184.32 242.28) rotate(-135)"/></g></g></g></g></svg>